<svg xmlns="http://www.w3.org/2000/svg" xmlns:xlink="http://www.w3.org/1999/xlink" viewBox="0 0 500 500" width="500" height="500" preserveAspectRatio="xMidYMid meet" style="width: 100%; height: 100%; transform: translate3d(0px, 0px, 0px); content-visibility: visible;"><defs><clipPath id="__lottie_element_4572"><rect width="500" height="500" x="0" y="0"></rect></clipPath><clipPath id="__lottie_element_4575"><path d="M0,0 L500,0 L500,500 L0,500z"></path></clipPath><g id="__lottie_element_4589"><g transform="matrix(1,0,0,1,249.89999389648438,145.9499969482422)" opacity="1" style="display: block;"><path fill="rgb(255,0,0)" fill-opacity="1" d=" M-120.19999694824219,-49.95000076293945 C-128.8000030517578,-24.649999618530273 -137.5,0.550000011920929 -146.10000610351562,25.850000381469727 C-124.30000305175781,33.25 -102.19999694824219,39.04999923706055 -79.80000305175781,43.04999923706055 C-57.79999923706055,46.95000076293945 -35.5,49.25 -13.199999809265137,49.95000076293945 C-13.199999809265137,49.95000076293945 15.156000137329102,50.492000579833984 28.083999633789062,49.76300048828125 C41.75600051879883,48.992000579833984 66.5999984741211,45.45000076293945 66.5999984741211,45.45000076293945 C66.69999694824219,45.45000076293945 66.69999694824219,45.45000076293945 66.80000305175781,45.45000076293945 C93.5999984741211,41.45000076293945 120.19999694824219,35.04999923706055 146.10000610351562,26.149999618530273 C137.5,0.8500000238418579 128.8000030517578,-24.350000381469727 120.19999694824219,-49.650001525878906 C74.0999984741211,-185.9499969482422 -86.9000015258789,-176.9499969482422 -120.19999694824219,-49.95000076293945z"></path><g opacity="1" transform="matrix(1,0,0,1,0,0)"></g></g></g><filter id="__lottie_element_4600" filterUnits="objectBoundingBox" x="0%" y="0%" width="100%" height="100%"><feComponentTransfer in="SourceGraphic"><feFuncA type="table" tableValues="1.0 0.0"></feFuncA></feComponentTransfer></filter><mask id="__lottie_element_4589_2" mask-type="alpha"><g filter="url(#__lottie_element_4600)"><rect width="500" height="500" x="0" y="0" fill="#ffffff" opacity="0"></rect><use xlink:href="#__lottie_element_4589"></use></g></mask></defs><g clip-path="url(#__lottie_element_4572)"><g clip-path="url(#__lottie_element_4575)" transform="matrix(1,0,0,1,0,0)" opacity="1" style="display: block;"><g transform="matrix(1,0,0,1,0.4490322470664978,-1.3743616342544556)" opacity="1" style="display: block;"><g opacity="1" transform="matrix(1,0,0,1,192.5850067138672,238.1479949951172)"><path fill="rgb(255,199,56)" fill-opacity="1" d=" M77.38999938964844,-69.85700225830078 C77.38999938964844,-69.85700225830078 30.68400001525879,25.77199935913086 30.68400001525879,25.77199935913086 C30.68400001525879,25.77199935913086 -5.452000141143799,99.75800323486328 -5.452000141143799,99.75800323486328 C-5.452000141143799,99.75800323486328 -77.38999938964844,64.62300109863281 -77.38999938964844,64.62300109863281 C-77.38999938964844,64.62300109863281 -43.375,-5.020999908447266 -43.375,-5.020999908447266 C-43.375,-5.020999908447266 2.8959999084472656,-99.75800323486328 2.8959999084472656,-99.75800323486328 C26.531999588012695,-87.14600372314453 51.50299835205078,-77.10800170898438 77.38999938964844,-69.85700225830078z"></path></g><g opacity="0.5" transform="matrix(1,0,0,1,192.5850067138672,238.1479949951172)" style="mix-blend-mode: multiply;"><path fill="rgb(255,199,56)" fill-opacity="1" d=" M77.38999938964844,-69.85700225830078 C77.38999938964844,-69.85700225830078 30.68400001525879,25.77199935913086 30.68400001525879,25.77199935913086 C30.68400001525879,25.77199935913086 -5.452000141143799,99.75800323486328 -5.452000141143799,99.75800323486328 C-5.452000141143799,99.75800323486328 -77.38999938964844,64.62300109863281 -77.38999938964844,64.62300109863281 C-77.38999938964844,64.62300109863281 -43.375,-5.020999908447266 -43.375,-5.020999908447266 C-43.375,-5.020999908447266 2.8959999084472656,-99.75800323486328 2.8959999084472656,-99.75800323486328 C26.531999588012695,-87.14600372314453 51.50299835205078,-77.10800170898438 77.38999938964844,-69.85700225830078z"></path></g></g><g mask="url(#__lottie_element_4589_2)" style="display: block;"><g transform="matrix(0.8987940549850464,0.4383711516857147,-0.4383711516857147,0.8987940549850464,203.40670776367188,212.1182861328125)" opacity="1"><g opacity="1" transform="matrix(1,0,0,1,0,0)"><path stroke-linecap="round" stroke-linejoin="round" fill-opacity="0" stroke="rgb(18,19,49)" stroke-opacity="1" stroke-width="7" d=" M-39.75,79.6500015258789 C-39.75,79.6500015258789 39.95000076293945,79.6500015258789 39.95000076293945,79.6500015258789"></path></g><g opacity="1" transform="matrix(1,0,0,1,0,0)"><path stroke-linecap="round" stroke-linejoin="round" fill-opacity="0" stroke="rgb(18,19,49)" stroke-opacity="1" stroke-width="7" d=" M-13.25,146.35000610351562 C-13.25,146.35000610351562 -13.25,119.6500015258789 -13.25,119.6500015258789 M13.350000381469727,146.35000610351562 C13.350000381469727,146.35000610351562 13.350000381469727,119.6500015258789 13.350000381469727,119.6500015258789 M40.04999923706055,146.5500030517578 C40.04999923706055,146.5500030517578 40.04999923706055,119.8499984741211 40.04999923706055,119.8499984741211 M-39.95000076293945,146.35000610351562 C-39.95000076293945,146.35000610351562 -39.95000076293945,119.6500015258789 -39.95000076293945,119.6500015258789 M-40.04999923706055,-140.64999389648438 C-40.04999923706055,-140.64999389648438 -40.04999923706055,-99.05599975585938 -40.04999923706055,-16.766000747680664 C-40.04999923706055,72.71700286865234 -40.04999923706055,119.6500015258789 -40.04999923706055,119.6500015258789 C-40.04999923706055,119.6500015258789 40.04999923706055,119.6500015258789 40.04999923706055,119.6500015258789 C40.04999923706055,119.6500015258789 40.04999923706055,72.71700286865234 40.04999923706055,-16.766000747680664 C40.04999923706055,-102.94999694824219 40.04999923706055,-146.5500030517578 40.04999923706055,-146.5500030517578"></path></g></g></g><g transform="matrix(1,0,0,1,250,250)" opacity="1" style="display: block;"><g opacity="1" transform="matrix(1,0,0,1,0,0)"><path fill="rgb(255,199,56)" fill-opacity="1" d=" M145.53900146484375,-80.59700012207031 C146.0780029296875,-79.02200317382812 145.23399353027344,-77.3010025024414 143.656005859375,-76.77200317382812 C118.62699890136719,-68.39099884033203 93.052001953125,-62.27299880981445 67.21700286865234,-58.40999984741211 C40.707000732421875,-54.43000030517578 13.916999816894531,-52.83100128173828 -12.833000183105469,-53.62099838256836 C-12.833000183105469,-53.62099838256836 -12.843000411987305,-53.62099838256836 -12.843000411987305,-53.62099838256836 C-56.79999923706055,-54.9119987487793 -100.61399841308594,-62.62900161743164 -142.85299682617188,-76.77200317382812 C-144.43099975585938,-77.30000305175781 -145.27499389648438,-79.02200317382812 -144.73599243164062,-80.59700012207031 C-136.7429962158203,-103.9540023803711 -128.74200439453125,-127.31199645996094 -120.7490005493164,-150.66900634765625 C-120.21499633789062,-152.22999572753906 -118.52300262451172,-153.05799865722656 -116.95800018310547,-152.53599548339844 C-83.11000061035156,-141.2480010986328 -48.042999267578125,-134.9759979248047 -12.843000411987305,-133.7209930419922 C-12.843000411987305,-133.7209930419922 -12.833000183105469,-133.7209930419922 -12.833000183105469,-133.7209930419922 C13.937000274658203,-132.76100158691406 40.777000427246094,-134.7010040283203 67.21700286865234,-139.55099487304688 C84.27799987792969,-142.67300415039062 101.16899871826172,-147.0050048828125 117.76200103759766,-152.53599548339844 C119.3270034790039,-153.05799865722656 121.01799774169922,-152.2310028076172 121.552001953125,-150.6699981689453 C129.5449981689453,-127.31300354003906 137.54600524902344,-103.9540023803711 145.53900146484375,-80.59700012207031z"></path></g><g opacity="0.5" transform="matrix(1,0,0,1,0,0)" style="mix-blend-mode: multiply;"><path fill="rgb(255,199,56)" fill-opacity="0.5" d=" M145.53900146484375,-80.59700012207031 C146.0780029296875,-79.02200317382812 145.23399353027344,-77.3010025024414 143.656005859375,-76.77200317382812 C118.62699890136719,-68.39099884033203 93.052001953125,-62.27299880981445 67.21700286865234,-58.40999984741211 C40.707000732421875,-54.43000030517578 13.916999816894531,-52.83100128173828 -12.833000183105469,-53.62099838256836 C-12.833000183105469,-53.62099838256836 -12.843000411987305,-53.62099838256836 -12.843000411987305,-53.62099838256836 C-56.79999923706055,-54.9119987487793 -100.61399841308594,-62.62900161743164 -142.85299682617188,-76.77200317382812 C-144.43099975585938,-77.30000305175781 -145.27499389648438,-79.02200317382812 -144.73599243164062,-80.59700012207031 C-136.7429962158203,-103.9540023803711 -128.74200439453125,-127.31199645996094 -120.7490005493164,-150.66900634765625 C-120.21499633789062,-152.22999572753906 -118.52300262451172,-153.05799865722656 -116.95800018310547,-152.53599548339844 C-83.11000061035156,-141.2480010986328 -48.042999267578125,-134.9759979248047 -12.843000411987305,-133.7209930419922 C-12.843000411987305,-133.7209930419922 -12.833000183105469,-133.7209930419922 -12.833000183105469,-133.7209930419922 C13.937000274658203,-132.76100158691406 40.777000427246094,-134.7010040283203 67.21700286865234,-139.55099487304688 C84.27799987792969,-142.67300415039062 101.16899871826172,-147.0050048828125 117.76200103759766,-152.53599548339844 C119.3270034790039,-153.05799865722656 121.01799774169922,-152.2310028076172 121.552001953125,-150.6699981689453 C129.5449981689453,-127.31300354003906 137.54600524902344,-103.9540023803711 145.53900146484375,-80.59700012207031z"></path></g></g><g transform="matrix(1,0,0,1,249.89999389648438,145.9499969482422)" opacity="1" style="display: block;"><g opacity="1" transform="matrix(1,0,0,1,0,0)"><path stroke-linecap="round" stroke-linejoin="round" fill-opacity="0" stroke="rgb(18,19,49)" stroke-opacity="1" stroke-width="7" d=" M-120.19999694824219,-49.95000076293945 C-128.8000030517578,-24.649999618530273 -137.5,0.550000011920929 -146.10000610351562,25.850000381469727 C-124.30000305175781,33.25 -102.19999694824219,39.04999923706055 -79.80000305175781,43.04999923706055 C-57.79999923706055,46.95000076293945 -35.5,49.25 -13.199999809265137,49.95000076293945 C-13.199999809265137,49.95000076293945 15.156000137329102,50.492000579833984 28.083999633789062,49.76300048828125 C41.75600051879883,48.992000579833984 66.5999984741211,45.45000076293945 66.5999984741211,45.45000076293945 C66.69999694824219,45.45000076293945 66.69999694824219,45.45000076293945 66.80000305175781,45.45000076293945 C93.5999984741211,41.45000076293945 120.19999694824219,35.04999923706055 146.10000610351562,26.149999618530273 C137.5,0.8500000238418579 128.8000030517578,-24.350000381469727 120.19999694824219,-49.650001525878906 C102.69999694824219,-43.75 84.80000305175781,-39.04999923706055 66.80000305175781,-35.75 C65,-35.45000076293945 63.20000076293945,-35.150001525878906 61.400001525878906,-34.849998474121094 C60.400001525878906,-34.650001525878906 59.5,-34.54999923706055 58.5,-34.349998474121094 C57.20000076293945,-34.150001525878906 55.79999923706055,-33.95000076293945 54.400001525878906,-33.75 C53.400001525878906,-33.650001525878906 52.400001525878906,-33.45000076293945 51.400001525878906,-33.349998474121094 C50.400001525878906,-33.25 49.5,-33.04999923706055 48.5,-32.95000076293945 C48.099998474121094,-32.95000076293945 47.79999923706055,-32.849998474121094 47.5,-32.849998474121094 C46.5,-32.650001525878906 45.5,-32.54999923706055 44.5,-32.45000076293945 C44.29999923706055,-32.349998474121094 44.099998474121094,-32.349998474121094 43.900001525878906,-32.349998474121094 C42.900001525878906,-32.25 42,-32.150001525878906 41,-32.04999923706055 C40.400001525878906,-31.950000762939453 39.900001525878906,-31.850000381469727 39.29999923706055,-31.850000381469727 C38.5,-31.75 37.599998474121094,-31.649999618530273 36.70000076293945,-31.549999237060547 C36.70000076293945,-31.549999237060547 36.599998474121094,-31.549999237060547 36.599998474121094,-31.549999237060547 C35.400001525878906,-31.450000762939453 34.099998474121094,-31.350000381469727 32.900001525878906,-31.25 C32.29999923706055,-31.25 31.799999237060547,-31.149999618530273 31.299999237060547,-31.149999618530273 C28.600000381469727,-30.950000762939453 25.899999618530273,-30.75 23.200000762939453,-30.549999237060547 C23.100000381469727,-30.549999237060547 22.899999618530273,-30.549999237060547 22.799999237060547,-30.549999237060547 C21.299999237060547,-30.450000762939453 19.899999618530273,-30.450000762939453 18.399999618530273,-30.350000381469727 C16.899999618530273,-30.25 15.300000190734863,-30.149999618530273 13.800000190734863,-30.149999618530273 C12.5,-30.149999618530273 11.100000381469727,-30.049999237060547 9.800000190734863,-30.049999237060547 C9.5,-30.049999237060547 9.300000190734863,-30.049999237060547 9,-30.049999237060547 C7.5,-29.950000762939453 6,-29.950000762939453 4.599999904632568,-29.950000762939453 C3.0999999046325684,-29.950000762939453 1.5,-29.950000762939453 0,-29.950000762939453 C-4.400000095367432,-29.950000762939453 -8.899999618530273,-29.950000762939453 -13.300000190734863,-30.149999618530273 C-49.400001525878906,-31.450000762939453 -85.5,-38.04999923706055 -120.19999694824219,-49.95000076293945z"></path></g></g></g><g transform="matrix(1,0,0,1,276.6499938964844,256.45001220703125)" opacity="1" style="display: block;"><path fill="rgb(255,199,56)" fill-opacity="1" d=" M-39.75,79.6500015258789 C-39.75,79.6500015258789 39.95000076293945,79.6500015258789 39.95000076293945,79.6500015258789 M-13.25,146.35000610351562 C-13.25,146.35000610351562 -13.25,119.6500015258789 -13.25,119.6500015258789 M13.350000381469727,146.35000610351562 C13.350000381469727,146.35000610351562 13.350000381469727,119.6500015258789 13.350000381469727,119.6500015258789 M40.04999923706055,146.5500030517578 C40.04999923706055,146.5500030517578 40.04999923706055,119.8499984741211 40.04999923706055,119.8499984741211 M-39.95000076293945,146.35000610351562 C-39.95000076293945,146.35000610351562 -39.95000076293945,119.6500015258789 -39.95000076293945,119.6500015258789 M-40.04999923706055,-140.64999389648438 C-40.04999923706055,-140.64999389648438 -40.04999923706055,-99.05599975585938 -40.04999923706055,-16.766000747680664 C-40.04999923706055,72.71700286865234 -40.04999923706055,119.6500015258789 -40.04999923706055,119.6500015258789 C-40.04999923706055,119.6500015258789 40.04999923706055,119.6500015258789 40.04999923706055,119.6500015258789 C40.04999923706055,119.6500015258789 40.04999923706055,72.71700286865234 40.04999923706055,-16.766000747680664 C40.04999923706055,-102.94999694824219 40.04999923706055,-146.5500030517578 40.04999923706055,-146.5500030517578"></path><g opacity="1" transform="matrix(1,0,0,1,0,0)"><path stroke-linecap="round" stroke-linejoin="round" fill-opacity="0" stroke="rgb(18,19,49)" stroke-opacity="1" stroke-width="7" d=" M-39.75,79.6500015258789 C-39.75,79.6500015258789 39.95000076293945,79.6500015258789 39.95000076293945,79.6500015258789"></path></g><g opacity="1" transform="matrix(1,0,0,1,0,0)"><path stroke-linecap="round" stroke-linejoin="round" fill-opacity="0" stroke="rgb(18,19,49)" stroke-opacity="1" stroke-width="7" d=" M-13.25,146.35000610351562 C-13.25,146.35000610351562 -13.25,119.6500015258789 -13.25,119.6500015258789 M13.350000381469727,146.35000610351562 C13.350000381469727,146.35000610351562 13.350000381469727,119.6500015258789 13.350000381469727,119.6500015258789 M40.04999923706055,146.5500030517578 C40.04999923706055,146.5500030517578 40.04999923706055,119.8499984741211 40.04999923706055,119.8499984741211 M-39.95000076293945,146.35000610351562 C-39.95000076293945,146.35000610351562 -39.95000076293945,119.6500015258789 -39.95000076293945,119.6500015258789 M-40.04999923706055,-140.64999389648438 C-40.04999923706055,-140.64999389648438 -40.04999923706055,-99.05599975585938 -40.04999923706055,-16.766000747680664 C-40.04999923706055,72.71700286865234 -40.04999923706055,119.6500015258789 -40.04999923706055,119.6500015258789 C-40.04999923706055,119.6500015258789 40.04999923706055,119.6500015258789 40.04999923706055,119.6500015258789 C40.04999923706055,119.6500015258789 40.04999923706055,72.71700286865234 40.04999923706055,-16.766000747680664 C40.04999923706055,-102.94999694824219 40.04999923706055,-146.5500030517578 40.04999923706055,-146.5500030517578"></path></g></g><g transform="matrix(1,0,0,1,250,250)" opacity="1" style="display: block;"><g opacity="1" transform="matrix(1,0,0,1,0,0)"><path stroke-linecap="butt" stroke-linejoin="miter" fill-opacity="0" stroke-miterlimit="4" stroke="rgb(18,19,49)" stroke-opacity="1" stroke-width="7" d=" M-20.5,-134.81300354003906 C-20.5,-134.81300354003906 40.75,-132.56300354003906 74,-141.31300354003906 M-20.5,-134.81300354003906 C-20.5,-134.81300354003906 40.75,-132.56300354003906 74,-141.31300354003906"></path></g></g><g transform="matrix(2.65159010887146,0,0,2.65159010887146,37.9818115234375,480.39056396484375)" opacity="0.2" style="display: none;"><path fill="rgb(0,0,0)" fill-opacity="1" d=" M141.6959991455078,0 C141.6959991455078,0 144.6699981689453,0 144.6699981689453,0 C144.6699981689453,0 144.6699981689453,-12.715999603271484 144.6699981689453,-12.715999603271484 C144.6699981689453,-12.715999603271484 148.62899780273438,0 148.62899780273438,0 C148.62899780273438,0 151.25399780273438,0 151.25399780273438,0 C151.25399780273438,0 155.2949981689453,-12.715999603271484 155.2949981689453,-12.715999603271484 C155.2949981689453,-12.715999603271484 155.2949981689453,0 155.2949981689453,0 C155.2949981689453,0 158.4530029296875,0 158.4530029296875,0 C158.4530029296875,0 158.4530029296875,-14.829000473022461 158.4530029296875,-14.829000473022461 C158.4530029296875,-14.829000473022461 153.4080047607422,-14.829000473022461 153.4080047607422,-14.829000473022461 C153.4080047607422,-14.829000473022461 150.0240020751953,-4.040999889373779 150.0240020751953,-4.040999889373779 C150.0240020751953,-4.040999889373779 146.88499450683594,-14.829000473022461 146.88499450683594,-14.829000473022461 C146.88499450683594,-14.829000473022461 141.6959991455078,-14.829000473022461 141.6959991455078,-14.829000473022461 C141.6959991455078,-14.829000473022461 141.6959991455078,0 141.6959991455078,0z M128.80499267578125,-7.302000045776367 C128.80499267578125,-8.984000205993652 129.05099487304688,-10.583000183105469 129.89199829101562,-11.609000205993652 C130.48699951171875,-12.368000030517578 131.42999267578125,-12.859999656677246 132.6199951171875,-12.859999656677246 C134.13800048828125,-12.859999656677246 135.38900756835938,-12.0600004196167 136.00399780273438,-10.234999656677246 C136.31199645996094,-9.333000183105469 136.3730010986328,-8.307000160217285 136.3730010986328,-7.589000225067139 C136.3730010986328,-5.230000019073486 135.86000061035156,-4.080999851226807 135.3679962158203,-3.3429999351501465 C134.7729949951172,-2.4200000762939453 133.89100646972656,-1.968999981880188 132.5989990234375,-1.968999981880188 C131.1219940185547,-1.968999981880188 130.36300659179688,-2.5439999103546143 129.91200256347656,-3.1589999198913574 C129.02999877929688,-4.308000087738037 128.80499267578125,-5.88700008392334 128.80499267578125,-7.302000045776367z M125.48200225830078,-7.198999881744385 C125.48200225830078,-5.84499979019165 125.68800354003906,-3.384000062942505 127.30799865722656,-1.6610000133514404 C128.66200256347656,-0.2460000067949295 130.60899353027344,0.36899998784065247 132.55799865722656,0.36899998784065247 C133.78900146484375,0.36899998784065247 136.18800354003906,0.10300000011920929 137.82899475097656,-1.7430000305175781 C139.03900146484375,-3.0969998836517334 139.6959991455078,-5.394000053405762 139.6959991455078,-7.547999858856201 C139.6959991455078,-9.003999710083008 139.38800048828125,-11.321999549865723 137.8090057373047,-13.126999855041504 C136.35299682617188,-14.767999649047852 134.17799377441406,-15.13700008392334 132.5989990234375,-15.13700008392334 C127.26599884033203,-15.13700008392334 125.48200225830078,-11.13700008392334 125.48200225830078,-7.198999881744385z M124.04000091552734,-9.98900032043457 C124.04000091552734,-12.942999839782715 121.76399993896484,-14.91100025177002 118.52300262451172,-14.91100025177002 C114.35900115966797,-14.91100025177002 111.73400115966797,-11.793999671936035 111.73400115966797,-7.0970001220703125 C111.73400115966797,-3.4260001182556152 113.3949966430664,0.3490000069141388 118.50199890136719,0.3490000069141388 C119.85600280761719,0.3490000069141388 121.51699829101562,0.04100000113248825 122.83000183105469,-1.312999963760376 C124.0199966430664,-2.5439999103546143 124.10099792480469,-3.9170000553131104 124.16300201416016,-4.798999786376953 C124.16300201416016,-4.798999786376953 120.81999969482422,-4.798999786376953 120.81999969482422,-4.798999786376953 C120.75800323486328,-2.8299999237060547 119.48699951171875,-1.9900000095367432 118.15399932861328,-1.9900000095367432 C115.05699920654297,-1.9900000095367432 115.05699920654297,-6.193999767303467 115.05699920654297,-7.076000213623047 C115.05699920654297,-10.131999969482422 116.04100036621094,-12.593000411987305 118.4000015258789,-12.593000411987305 C120.55400085449219,-12.593000411987305 120.73799896240234,-10.501999855041504 120.80000305175781,-9.98900032043457 C120.80000305175781,-9.98900032043457 124.04000091552734,-9.98900032043457 124.04000091552734,-9.98900032043457z M106.89299774169922,0 C106.89299774169922,0 109.49700164794922,0 109.49700164794922,0 C109.49700164794922,0 109.49700164794922,-2.7279999256134033 109.49700164794922,-2.7279999256134033 C109.49700164794922,-2.7279999256134033 106.89299774169922,-2.7279999256134033 106.89299774169922,-2.7279999256134033 C106.89299774169922,-2.7279999256134033 106.89299774169922,0 106.89299774169922,0z M91.00700378417969,0 C91.00700378417969,0 94.0009994506836,0 94.0009994506836,0 C94.0009994506836,0 94.0009994506836,-12.305999755859375 94.0009994506836,-12.305999755859375 C94.0009994506836,-12.305999755859375 99.74400329589844,0 99.74400329589844,0 C99.74400329589844,0 104.11299896240234,0 104.11299896240234,0 C104.11299896240234,0 104.11299896240234,-14.829000473022461 104.11299896240234,-14.829000473022461 C104.11299896240234,-14.829000473022461 101.15899658203125,-14.829000473022461 101.15899658203125,-14.829000473022461 C101.15899658203125,-14.829000473022461 101.15899658203125,-3.1589999198913574 101.15899658203125,-3.1589999198913574 C101.15899658203125,-3.1589999198913574 95.60099792480469,-14.829000473022461 95.60099792480469,-14.829000473022461 C95.60099792480469,-14.829000473022461 91.00700378417969,-14.829000473022461 91.00700378417969,-14.829000473022461 C91.00700378417969,-14.829000473022461 91.00700378417969,0 91.00700378417969,0z M77.86900329589844,-7.302000045776367 C77.86900329589844,-8.984000205993652 78.11499786376953,-10.583000183105469 78.95600128173828,-11.609000205993652 C79.5510025024414,-12.368000030517578 80.49400329589844,-12.859999656677246 81.68399810791016,-12.859999656677246 C83.2020034790039,-12.859999656677246 84.4530029296875,-12.0600004196167 85.06800079345703,-10.234999656677246 C85.3759994506836,-9.333000183105469 85.43699645996094,-8.307000160217285 85.43699645996094,-7.589000225067139 C85.43699645996094,-5.230000019073486 84.92400360107422,-4.080999851226807 84.43199920654297,-3.3429999351501465 C83.83699798583984,-2.4200000762939453 82.95500183105469,-1.968999981880188 81.66300201416016,-1.968999981880188 C80.18599700927734,-1.968999981880188 79.4280014038086,-2.5439999103546143 78.97699737548828,-3.1589999198913574 C78.09500122070312,-4.308000087738037 77.86900329589844,-5.88700008392334 77.86900329589844,-7.302000045776367z M74.5459976196289,-7.198999881744385 C74.5459976196289,-5.84499979019165 74.75199890136719,-3.384000062942505 76.37200164794922,-1.6610000133514404 C77.72599792480469,-0.2460000067949295 79.6729965209961,0.36899998784065247 81.62200164794922,0.36899998784065247 C82.85299682617188,0.36899998784065247 85.25299835205078,0.10300000011920929 86.89399719238281,-1.7430000305175781 C88.10399627685547,-3.0969998836517334 88.76000213623047,-5.394000053405762 88.76000213623047,-7.547999858856201 C88.76000213623047,-9.003999710083008 88.4520034790039,-11.321999549865723 86.87300109863281,-13.126999855041504 C85.41699981689453,-14.767999649047852 83.24199676513672,-15.13700008392334 81.66300201416016,-15.13700008392334 C76.33000183105469,-15.13700008392334 74.5459976196289,-11.13700008392334 74.5459976196289,-7.198999881744385z M73.10399627685547,-9.98900032043457 C73.10399627685547,-12.942999839782715 70.8280029296875,-14.91100025177002 67.58699798583984,-14.91100025177002 C63.42300033569336,-14.91100025177002 60.79800033569336,-11.793999671936035 60.79800033569336,-7.0970001220703125 C60.79800033569336,-3.4260001182556152 62.45899963378906,0.3490000069141388 67.56600189208984,0.3490000069141388 C68.91999816894531,0.3490000069141388 70.58100128173828,0.04100000113248825 71.89399719238281,-1.312999963760376 C73.08399963378906,-2.5439999103546143 73.16500091552734,-3.9170000553131104 73.22699737548828,-4.798999786376953 C73.22699737548828,-4.798999786376953 69.88400268554688,-4.798999786376953 69.88400268554688,-4.798999786376953 C69.8219985961914,-2.8299999237060547 68.5510025024414,-1.9900000095367432 67.21800231933594,-1.9900000095367432 C64.12100219726562,-1.9900000095367432 64.12100219726562,-6.193999767303467 64.12100219726562,-7.076000213623047 C64.12100219726562,-10.131999969482422 65.1050033569336,-12.593000411987305 67.46399688720703,-12.593000411987305 C69.61799621582031,-12.593000411987305 69.802001953125,-10.501999855041504 69.86399841308594,-9.98900032043457 C69.86399841308594,-9.98900032043457 73.10399627685547,-9.98900032043457 73.10399627685547,-9.98900032043457z M55.66899871826172,0 C55.66899871826172,0 58.8489990234375,0 58.8489990234375,0 C58.8489990234375,0 58.8489990234375,-14.869999885559082 58.8489990234375,-14.869999885559082 C58.8489990234375,-14.869999885559082 55.66899871826172,-14.869999885559082 55.66899871826172,-14.869999885559082 C55.66899871826172,-14.869999885559082 55.66899871826172,0 55.66899871826172,0z M44.28799819946289,-12.387999534606934 C46.112998962402344,-12.470000267028809 46.95500183105469,-12.368000030517578 47.611000061035156,-12.182999610900879 C49.60100173950195,-11.628999710083008 50.31800079345703,-9.701000213623047 50.31800079345703,-7.609000205993652 C50.31800079345703,-6.890999794006348 50.236000061035156,-4.676000118255615 48.98500061035156,-3.424999952316284 C48.0620002746582,-2.502000093460083 46.893001556396484,-2.4000000953674316 45.53900146484375,-2.4000000953674316 C45.16999816894531,-2.4000000953674316 44.637001037597656,-2.4200000762939453 44.28799819946289,-2.440999984741211 C44.28799819946289,-2.440999984741211 44.28799819946289,-12.387999534606934 44.28799819946289,-12.387999534606934z M41.06800079345703,0 C41.06800079345703,0 45.68299865722656,0 45.68299865722656,0 C47.18000030517578,0 47.79499816894531,-0.061000000685453415 48.3489990234375,-0.164000004529953 C51.159000396728516,-0.6769999861717224 53.599998474121094,-3.055999994277954 53.599998474121094,-7.609000205993652 C53.599998474121094,-9.722000122070312 52.94300079345703,-12.0600004196167 51.07699966430664,-13.434000015258789 C49.292999267578125,-14.746999740600586 46.790000915527344,-14.767999649047852 45.970001220703125,-14.767999649047852 C45.970001220703125,-14.767999649047852 41.06800079345703,-14.788000106811523 41.06800079345703,-14.788000106811523 C41.06800079345703,-14.788000106811523 41.06800079345703,0 41.06800079345703,0z M30.518999099731445,-12.491000175476074 C30.518999099731445,-12.491000175476074 32.652000427246094,-12.491000175476074 32.652000427246094,-12.491000175476074 C33.65700149536133,-12.491000175476074 34.25199890136719,-12.491000175476074 34.74399948120117,-12.142000198364258 C35.03099822998047,-11.956999778747559 35.52399826049805,-11.486000061035156 35.52399826049805,-10.480999946594238 C35.52399826049805,-9.4350004196167 34.92900085449219,-8.92199993133545 34.702999114990234,-8.758000373840332 C34.189998626708984,-8.347999572753906 33.45199966430664,-8.347999572753906 33.08300018310547,-8.347999572753906 C33.08300018310547,-8.347999572753906 30.518999099731445,-8.347999572753906 30.518999099731445,-8.347999572753906 C30.518999099731445,-8.347999572753906 30.518999099731445,-12.491000175476074 30.518999099731445,-12.491000175476074z M27.381000518798828,0 C27.381000518798828,0 30.621999740600586,0 30.621999740600586,0 C30.621999740600586,0 30.621999740600586,-5.988999843597412 30.621999740600586,-5.988999843597412 C30.621999740600586,-5.988999843597412 33.4109992980957,-5.988999843597412 33.4109992980957,-5.988999843597412 C33.944000244140625,-5.988999843597412 34.7239990234375,-5.988999843597412 35.01100158691406,-5.1479997634887695 C35.215999603271484,-4.573999881744385 35.66699981689453,-0.8199999928474426 35.81100082397461,0 C35.81100082397461,0 39.31800079345703,0 39.31800079345703,0 C39.15399932861328,-0.2460000067949295 39.03099822998047,-0.41100001335144043 38.867000579833984,-1.0670000314712524 C38.763999938964844,-1.4769999980926514 38.641998291015625,-2.194999933242798 38.41600036621094,-3.937999963760376 C38.14899826049805,-5.866000175476074 37.98500061035156,-7.138000011444092 35.749000549316406,-7.3429999351501465 C36.46699905395508,-7.547999858856201 38.84700012207031,-8.204000473022461 38.84700012207031,-10.972999572753906 C38.84700012207031,-11.937000274658203 38.47700119018555,-13.02400016784668 37.55400085449219,-13.824000358581543 C36.36399841308594,-14.850000381469727 34.70399856567383,-14.850000381469727 33.0629997253418,-14.829000473022461 C33.0629997253418,-14.829000473022461 27.381000518798828,-14.829000473022461 27.381000518798828,-14.829000473022461 C27.381000518798828,-14.829000473022461 27.381000518798828,0 27.381000518798828,0z M14.489999771118164,-7.302000045776367 C14.489999771118164,-8.984000205993652 14.736000061035156,-10.583000183105469 15.57699966430664,-11.609000205993652 C16.172000885009766,-12.368000030517578 17.114999771118164,-12.859999656677246 18.30500030517578,-12.859999656677246 C19.822999954223633,-12.859999656677246 21.073999404907227,-12.0600004196167 21.68899917602539,-10.234999656677246 C21.996999740600586,-9.333000183105469 22.058000564575195,-8.307000160217285 22.058000564575195,-7.589000225067139 C22.058000564575195,-5.230000019073486 21.545000076293945,-4.080999851226807 21.05299949645996,-3.3429999351501465 C20.45800018310547,-2.4200000762939453 19.576000213623047,-1.968999981880188 18.284000396728516,-1.968999981880188 C16.80699920654297,-1.968999981880188 16.04800033569336,-2.5439999103546143 15.597000122070312,-3.1589999198913574 C14.71500015258789,-4.308000087738037 14.489999771118164,-5.88700008392334 14.489999771118164,-7.302000045776367z M11.166999816894531,-7.198999881744385 C11.166999816894531,-5.84499979019165 11.371999740600586,-3.384000062942505 12.991999626159668,-1.6610000133514404 C14.345999717712402,-0.2460000067949295 16.29400062561035,0.36899998784065247 18.243000030517578,0.36899998784065247 C19.474000930786133,0.36899998784065247 21.87299919128418,0.10300000011920929 23.513999938964844,-1.7430000305175781 C24.724000930786133,-3.0969998836517334 25.381000518798828,-5.394000053405762 25.381000518798828,-7.547999858856201 C25.381000518798828,-9.003999710083008 25.072999954223633,-11.321999549865723 23.493999481201172,-13.126999855041504 C22.038000106811523,-14.767999649047852 19.863000869750977,-15.13700008392334 18.284000396728516,-15.13700008392334 C12.951000213623047,-15.13700008392334 11.166999816894531,-11.13700008392334 11.166999816894531,-7.198999881744385z M1.4149999618530273,0 C1.4149999618530273,0 11.013999938964844,0 11.013999938964844,0 C11.013999938964844,0 11.013999938964844,-2.5230000019073486 11.013999938964844,-2.5230000019073486 C11.013999938964844,-2.5230000019073486 4.656000137329102,-2.5230000019073486 4.656000137329102,-2.5230000019073486 C4.656000137329102,-2.5230000019073486 4.656000137329102,-14.809000015258789 4.656000137329102,-14.809000015258789 C4.656000137329102,-14.809000015258789 1.4149999618530273,-14.809000015258789 1.4149999618530273,-14.809000015258789 C1.4149999618530273,-14.809000015258789 1.4149999618530273,0 1.4149999618530273,0z"></path></g></g></svg>