<svg xmlns="http://www.w3.org/2000/svg" xmlns:xlink="http://www.w3.org/1999/xlink" viewBox="0 0 500 500" width="500" height="500" preserveAspectRatio="xMidYMid meet" style="width: 100%; height: 100%; transform: translate3d(0px, 0px, 0px); content-visibility: visible;"><defs><clipPath id="__lottie_element_17340"><rect width="500" height="500" x="0" y="0"></rect></clipPath></defs><g clip-path="url(#__lottie_element_17340)"><g transform="matrix(1,0,0,1,374.880126953125,198.09144592285156)" opacity="1" style="display: none;"><g opacity="1" transform="matrix(1,0,0,1,0,0)"><path fill="rgb(75,179,253)" fill-opacity="1" d=" M-110.92564392089844,207.97402954101562 C-110.92564392089844,215.98040771484375 -117.17880249023438,222.47198486328125 -124.89105224609375,222.47198486328125 C-132.60330200195312,222.47198486328125 -138.85549926757812,215.98040771484375 -138.85549926757812,207.97402954101562 C-138.85549926757812,199.9676513671875 -125.90662384033203,176.27398681640625 -124.89105224609375,175.08815002441406 C-123.81214141845703,176.20822143554688 -110.92564392089844,199.9676513671875 -110.92564392089844,207.97402954101562z"></path></g></g><g transform="matrix(1,0,0,1,374.880126953125,198.09144592285156)" opacity="1" style="display: none;"><g opacity="1" transform="matrix(1,0,0,1,0,0)"><path stroke-linecap="round" stroke-linejoin="round" fill-opacity="0" stroke="rgb(235,230,239)" stroke-opacity="1" stroke-width="7" d=" M-123.6495361328125,204.89105224609375 C-123.6495361328125,205.56295776367188 -124.02436828613281,206.1090545654297 -124.48619079589844,206.1090545654297"></path></g></g><g transform="matrix(1,0,0,1,375,200)" opacity="1" style="display: block;"><g opacity="1" transform="matrix(1,0,0,1,0,0)"><path fill="rgb(75,179,253)" fill-opacity="1" d=" M-28.23900032043457,110.8550033569336 C-28.23900032043457,164.2310028076172 -71.50900268554688,207.5 -124.88500213623047,207.5 C-178.26100158691406,207.5 -221.52999877929688,164.2310028076172 -221.52999877929688,110.8550033569336 C-221.52999877929688,57.479000091552734 -131.91400146484375,-100.46800231933594 -124.88500213623047,-108.375 C-117.41699981689453,-100.90699768066406 -28.23900032043457,57.479000091552734 -28.23900032043457,110.8550033569336z"></path></g></g><g transform="matrix(1,0,0,1,375,200)" opacity="1" style="display: block;"><g opacity="1" transform="matrix(1,0,0,1,0,0)"><path stroke-linecap="round" stroke-linejoin="round" fill-opacity="0" stroke="rgb(235,230,239)" stroke-opacity="1" stroke-width="7" d=" M-54.24100112915039,111.58899688720703 C-54.24100112915039,149.71200561523438 -85.14600372314453,180.61599731445312 -123.26899719238281,180.61599731445312"></path></g></g><g transform="matrix(0,0,0,0,435.5,290.5)" opacity="1" style="display: block;"><g opacity="1" transform="matrix(1,0,0,1,4.5,167.5)"><path fill="rgb(75,179,253)" fill-opacity="1" d=" M-4,-15.5 C-10.35099983215332,-15.5 -15.5,-10.35099983215332 -15.5,-4 C-15.5,2.3510000705718994 -10.35099983215332,7.5 -4,7.5 C2.3510000705718994,7.5 7.5,2.3510000705718994 7.5,-4 C7.5,-10.35099983215332 2.3510000705718994,-15.5 -4,-15.5z"></path></g></g><g transform="matrix(0,0,0,0,64.5,290.5)" opacity="1" style="display: block;"><g opacity="1" transform="matrix(1,0,0,1,4.5,167.5)"><path fill="rgb(75,179,253)" fill-opacity="1" d=" M-4,-15.5 C-10.35099983215332,-15.5 -15.5,-10.35099983215332 -15.5,-4 C-15.5,2.3510000705718994 -10.35099983215332,7.5 -4,7.5 C2.3510000705718994,7.5 7.5,2.3510000705718994 7.5,-4 C7.5,-10.35099983215332 2.3510000705718994,-15.5 -4,-15.5z"></path></g></g><g transform="matrix(0,0,0,0,250,333.375)" opacity="1" style="display: block;"><g opacity="1" transform="matrix(1,0,0,1,4.5,167.5)"><path fill="rgb(75,179,253)" fill-opacity="1" d=" M-4,-15.5 C-10.35099983215332,-15.5 -15.5,-10.35099983215332 -15.5,-4 C-15.5,2.3510000705718994 -10.35099983215332,7.5 -4,7.5 C2.3510000705718994,7.5 7.5,2.3510000705718994 7.5,-4 C7.5,-10.35099983215332 2.3510000705718994,-15.5 -4,-15.5z"></path></g></g><g transform="matrix(1,0,0,1,207.63511657714844,248.09144592285156)" opacity="0.5" style="mix-blend-mode: multiply; display: none;"><g opacity="1" transform="matrix(1,0,0,1,0,0)" style="mix-blend-mode: multiply;"><path fill="rgb(75,179,253)" fill-opacity="1" d=" M31.584714889526367,120.24169921875 C31.41514015197754,115.75131225585938 40.00079345703125,92.52283477783203 45.7946891784668,82.71826934814453 C44.68574905395508,80.86466217041016 44.84709167480469,80.60592651367188 44.56503677368164,80.3252944946289 C42.910003662109375,82.1744613647461 29.686077117919922,109.49140930175781 29.34077262878418,120.36884307861328 C29.040714263916016,129.8319549560547 35.57390594482422,138.022216796875 44.0942268371582,138.05923461914062 C45.063629150390625,138.0636749267578 46.01946258544922,137.99923706054688 46.95746994018555,137.88221740722656 C32.7480354309082,137.0869140625 31.806230545043945,126.09571838378906 31.584714889526367,120.24169921875z"></path></g></g><g transform="matrix(1,0,0,1,207.7550048828125,250)" opacity="0.5" style="mix-blend-mode: multiply; display: block;"><g opacity="1" transform="matrix(1,0,0,1,0,0)" style="mix-blend-mode: multiply;"><path fill="rgb(75,179,253)" fill-opacity="1" d=" M-35.875,60.74800109863281 C-35.875,16.084999084472656 26.86199951171875,-101.77799987792969 51.46500015258789,-143.7050018310547 C46.757999420166016,-151.6300048828125 43.44300079345703,-156.73899841308594 42.24399948120117,-157.93800354003906 C35.21500015258789,-150.031005859375 -54.4010009765625,7.915999889373779 -54.4010009765625,61.29199981689453 C-54.4010009765625,114.66799926757812 -11.131999969482422,157.93800354003906 42.24399948120117,157.93800354003906 C46.36199951171875,157.93800354003906 50.41899871826172,157.67799377441406 54.4010009765625,157.17799377441406 C3.994999885559082,153.8979949951172 -35.875,111.98300170898438 -35.875,60.74800109863281z"></path></g></g><g class="com" style="display: none;"><g><path></path></g><g><path></path></g><g><path></path></g><g><path></path></g><g><path></path></g><g><path></path></g><g><path></path></g><g><path></path></g><g><path></path></g><g><path></path></g><g><path></path></g><g><path></path></g></g></g></svg>