<svg xmlns="http://www.w3.org/2000/svg" xmlns:xlink="http://www.w3.org/1999/xlink" viewBox="0 0 500 500" width="500" height="500" preserveAspectRatio="xMidYMid meet" style="width: 100%; height: 100%; transform: translate3d(0px, 0px, 0px); content-visibility: visible;"><defs><clipPath id="__lottie_element_4372"><rect width="500" height="500" x="0" y="0"></rect></clipPath><clipPath id="__lottie_element_4375"><path d="M0,0 L500,0 L500,500 L0,500z"></path></clipPath><clipPath id="__lottie_element_4379"><path d="M0,0 L500,0 L500,500 L0,500z"></path></clipPath><clipPath id="__lottie_element_4383"><path d="M0,0 L500,0 L500,500 L0,500z"></path></clipPath></defs><g clip-path="url(#__lottie_element_4372)"><g clip-path="url(#__lottie_element_4375)" transform="matrix(1,0,0,1,0,0)" opacity="0" style="display: block;"><g transform="matrix(1,0,0,1,0,0)" opacity="1" style="display: block;"><g opacity="1" transform="matrix(1,0,0,1,250,250)"><path fill="rgb(75,179,253)" fill-opacity="1" d=" M113.5989990234375,113.5989990234375 C50.86000061035156,176.33799743652344 -50.86000061035156,176.33799743652344 -113.5989990234375,113.5989990234375 C-176.33799743652344,50.86000061035156 -176.33799743652344,-50.86000061035156 -113.5989990234375,-113.5989990234375 C-50.86000061035156,-176.33799743652344 50.86000061035156,-176.33799743652344 113.5989990234375,-113.5989990234375 C176.33799743652344,-50.86000061035156 176.33799743652344,50.86000061035156 113.5989990234375,113.5989990234375z"></path></g><g opacity="1" transform="matrix(1,0,0,1,250,250)"><path fill="rgb(235,230,239)" fill-opacity="1" d=" M92.83799743652344,92.83799743652344 C41.564998626708984,144.11099243164062 -41.564998626708984,144.11099243164062 -92.83799743652344,92.83799743652344 C-144.11099243164062,41.564998626708984 -144.11099243164062,-41.564998626708984 -92.83799743652344,-92.83799743652344 C-41.564998626708984,-144.11099243164062 41.564998626708984,-144.11099243164062 92.83799743652344,-92.83799743652344 C144.11099243164062,-41.564998626708984 144.11099243164062,41.564998626708984 92.83799743652344,92.83799743652344z"></path></g><g opacity="0.5" transform="matrix(1,0,0,1,225.12399291992188,255.69200134277344)" style="mix-blend-mode: multiply;"><path fill="rgb(235,230,239)" fill-opacity="1" d=" M106.41600036621094,97.21800231933594 C54.88600158691406,138.16799926757812 -20.304000854492188,134.80799865722656 -67.96399688720703,87.14800262451172 C-119.23400115966797,35.87799835205078 -119.23400115966797,-47.262001037597656 -67.96399688720703,-98.53199768066406 C-56.27399826049805,-110.22200012207031 -42.91400146484375,-119.25199890136719 -28.663999557495117,-125.60199737548828 C-32.57400131225586,-122.50199890136719 -36.354000091552734,-119.14199829101562 -39.9640007019043,-115.53199768066406 C-91.23400115966797,-64.26200103759766 -91.23400115966797,18.878000259399414 -39.9640007019043,70.14800262451172 C-0.37400001287460327,109.72799682617188 58.18600082397461,118.74800109863281 106.41600036621094,97.21800231933594z"></path></g><g opacity="1" transform="matrix(1,0,0,1,250,356.1499938964844)"><path stroke-linecap="round" stroke-linejoin="round" fill-opacity="0" stroke="rgb(18,19,49)" stroke-opacity="1" stroke-width="7" d=" M0,8.60200023651123 C0,8.60200023651123 0,-8.60200023651123 0,-8.60200023651123"></path></g><g opacity="1" transform="matrix(1,0,0,1,325.0589904785156,325.0589904785156)"><path stroke-linecap="round" stroke-linejoin="round" fill-opacity="0" stroke="rgb(18,19,49)" stroke-opacity="1" stroke-width="7" d=" M6.083000183105469,6.083000183105469 C6.083000183105469,6.083000183105469 -6.083000183105469,-6.083000183105469 -6.083000183105469,-6.083000183105469"></path></g><g opacity="1" transform="matrix(1,0,0,1,356.1499938964844,250)"><path stroke-linecap="round" stroke-linejoin="round" fill-opacity="0" stroke="rgb(18,19,49)" stroke-opacity="1" stroke-width="7" d=" M8.60200023651123,0 C8.60200023651123,0 -8.60200023651123,0 -8.60200023651123,0"></path></g><g opacity="1" transform="matrix(1,0,0,1,325.0589904785156,174.9409942626953)"><path stroke-linecap="round" stroke-linejoin="round" fill-opacity="0" stroke="rgb(18,19,49)" stroke-opacity="1" stroke-width="7" d=" M6.083000183105469,-6.083000183105469 C6.083000183105469,-6.083000183105469 -6.083000183105469,6.083000183105469 -6.083000183105469,6.083000183105469"></path></g><g opacity="1" transform="matrix(1,0,0,1,250,143.85000610351562)"><path stroke-linecap="round" stroke-linejoin="round" fill-opacity="0" stroke="rgb(18,19,49)" stroke-opacity="1" stroke-width="7" d=" M0,-8.60200023651123 C0,-8.60200023651123 0,8.60200023651123 0,8.60200023651123"></path></g><g opacity="1" transform="matrix(1,0,0,1,174.9409942626953,174.9409942626953)"><path stroke-linecap="round" stroke-linejoin="round" fill-opacity="0" stroke="rgb(18,19,49)" stroke-opacity="1" stroke-width="7" d=" M-6.083000183105469,-6.083000183105469 C-6.083000183105469,-6.083000183105469 6.083000183105469,6.083000183105469 6.083000183105469,6.083000183105469"></path></g><g opacity="1" transform="matrix(1,0,0,1,143.85000610351562,250)"><path stroke-linecap="round" stroke-linejoin="round" fill-opacity="0" stroke="rgb(18,19,49)" stroke-opacity="1" stroke-width="7" d=" M-8.60200023651123,0 C-8.60200023651123,0 8.60200023651123,0 8.60200023651123,0"></path></g><g opacity="1" transform="matrix(1,0,0,1,174.9409942626953,325.0589904785156)"><path stroke-linecap="round" stroke-linejoin="round" fill-opacity="0" stroke="rgb(18,19,49)" stroke-opacity="1" stroke-width="7" d=" M-6.083000183105469,6.083000183105469 C-6.083000183105469,6.083000183105469 6.083000183105469,-6.083000183105469 6.083000183105469,-6.083000183105469"></path></g><g opacity="0.4" transform="matrix(1,0,0,1,212.9530029296875,258.6369934082031)" style="mix-blend-mode: multiply;"><path fill="rgb(75,179,253)" fill-opacity="1" d=" M123.60800170898438,126.74299621582031 C61.428001403808594,166.58299255371094 -22.19300079345703,159.322998046875 -76.5530014038086,104.96299743652344 C-139.29299926757812,42.222999572753906 -139.29299926757812,-59.49700164794922 -76.5530014038086,-122.23699951171875 C-64.18299865722656,-134.60699462890625 -50.3129997253418,-144.52699279785156 -35.51300048828125,-152.01699829101562 C-45.10300064086914,-145.8769989013672 -54.17300033569336,-138.61700439453125 -62.553001403808594,-130.23699951171875 C-125.29299926757812,-67.49700164794922 -125.29299926757812,34.222999572753906 -62.553001403808594,96.96299743652344 C-12.182999610900879,147.33299255371094 63.327999114990234,157.26300048828125 123.60800170898438,126.74299621582031z"></path></g><g opacity="1" transform="matrix(1,0,0,1,250,250)"><path stroke-linecap="round" stroke-linejoin="round" fill-opacity="0" stroke="rgb(18,19,49)" stroke-opacity="1" stroke-width="7" d=" M113.5989990234375,113.5989990234375 C50.86000061035156,176.33799743652344 -50.86000061035156,176.33799743652344 -113.5989990234375,113.5989990234375 C-176.33799743652344,50.86000061035156 -176.33799743652344,-50.86000061035156 -113.5989990234375,-113.5989990234375 C-50.86000061035156,-176.33799743652344 50.86000061035156,-176.33799743652344 113.5989990234375,-113.5989990234375 C176.33799743652344,-50.86000061035156 176.33799743652344,50.86000061035156 113.5989990234375,113.5989990234375z"></path></g><g opacity="1" transform="matrix(1,0,0,1,250,250)"><path stroke-linecap="round" stroke-linejoin="round" fill-opacity="0" stroke="rgb(18,19,49)" stroke-opacity="1" stroke-width="7" d=" M92.83799743652344,92.83799743652344 C41.564998626708984,144.11099243164062 -41.564998626708984,144.11099243164062 -92.83799743652344,92.83799743652344 C-144.11099243164062,41.564998626708984 -144.11099243164062,-41.564998626708984 -92.83799743652344,-92.83799743652344 C-41.564998626708984,-144.11099243164062 41.564998626708984,-144.11099243164062 92.83799743652344,-92.83799743652344 C144.11099243164062,-41.564998626708984 144.11099243164062,41.564998626708984 92.83799743652344,92.83799743652344z"></path></g></g><g transform="matrix(-0.8918479084968567,0.4523354172706604,-0.4523354172706604,-0.8918479084968567,264.8741455078125,276.24163818359375)" opacity="1" style="display: block;"><g opacity="1" transform="matrix(1,0,0,1,0,0)"><path stroke-linecap="round" stroke-linejoin="round" fill-opacity="0" stroke="rgb(242,76,0)" stroke-opacity="1" stroke-width="7" d=" M0,32.882999420166016 C0,32.882999420166016 0,-32.882999420166016 0,-32.882999420166016"></path></g></g><g transform="matrix(0.8157864809036255,0.578353226184845,-0.578353226184845,0.8157864809036255,273.997314453125,245.91305541992188)" opacity="1" style="display: block;"><g opacity="1" transform="matrix(1,0,0,1,0,0)"><path stroke-linecap="round" stroke-linejoin="round" fill-opacity="0" stroke="rgb(18,19,49)" stroke-opacity="1" stroke-width="7" d=" M-17.21299934387207,17.21299934387207 C-17.21299934387207,17.21299934387207 17.21299934387207,-17.21299934387207 17.21299934387207,-17.21299934387207"></path></g></g><g transform="matrix(1,0,0,1,250,250)" opacity="1" style="display: block;"><path stroke-linecap="butt" stroke-linejoin="miter" fill-opacity="0" stroke-miterlimit="4" stroke="rgb(18,19,49)" stroke-opacity="1" stroke-width="0.9799999999999999" d=" M10.87,0 C10.87,6.01 6.01,10.87 0,10.87 C-6.01,10.87 -10.87,6.01 -10.87,0 C-10.87,-6.01 -6.01,-10.87 0,-10.87 C6.01,-10.87 10.87,-6.01 10.87,0z"></path><g opacity="1" transform="matrix(0.9476500153541565,0,0,0.9476500153541565,0,0)"><path fill="rgb(18,19,49)" fill-opacity="1" d=" M11.475000381469727,0 C11.475000381469727,6.3379998207092285 6.3379998207092285,11.475000381469727 0,11.475000381469727 C-6.3379998207092285,11.475000381469727 -11.475000381469727,6.3379998207092285 -11.475000381469727,0 C-11.475000381469727,-6.3379998207092285 -6.3379998207092285,-11.475000381469727 0,-11.475000381469727 C6.3379998207092285,-11.475000381469727 11.475000381469727,-6.3379998207092285 11.475000381469727,0z"></path></g></g></g><g clip-path="url(#__lottie_element_4379)" transform="matrix(1,0,0,1,0,0)" opacity="0" style="display: block;"><g transform="matrix(1,0,0,1,0,0)" opacity="1" style="display: block;"><g opacity="1" transform="matrix(1,0,0,1,250,250)"><path fill="rgb(75,179,253)" fill-opacity="1" d=" M113.5989990234375,113.5989990234375 C50.86000061035156,176.33799743652344 -50.86000061035156,176.33799743652344 -113.5989990234375,113.5989990234375 C-176.33799743652344,50.86000061035156 -176.33799743652344,-50.86000061035156 -113.5989990234375,-113.5989990234375 C-50.86000061035156,-176.33799743652344 50.86000061035156,-176.33799743652344 113.5989990234375,-113.5989990234375 C176.33799743652344,-50.86000061035156 176.33799743652344,50.86000061035156 113.5989990234375,113.5989990234375z"></path></g><g opacity="1" transform="matrix(1,0,0,1,250,250)"><path fill="rgb(235,230,239)" fill-opacity="1" d=" M92.83799743652344,92.83799743652344 C41.564998626708984,144.11099243164062 -41.564998626708984,144.11099243164062 -92.83799743652344,92.83799743652344 C-144.11099243164062,41.564998626708984 -144.11099243164062,-41.564998626708984 -92.83799743652344,-92.83799743652344 C-41.564998626708984,-144.11099243164062 41.564998626708984,-144.11099243164062 92.83799743652344,-92.83799743652344 C144.11099243164062,-41.564998626708984 144.11099243164062,41.564998626708984 92.83799743652344,92.83799743652344z"></path></g><g opacity="0.5" transform="matrix(1,0,0,1,225.12399291992188,255.69200134277344)" style="mix-blend-mode: multiply;"><path fill="rgb(235,230,239)" fill-opacity="1" d=" M106.41600036621094,97.21800231933594 C54.88600158691406,138.16799926757812 -20.304000854492188,134.80799865722656 -67.96399688720703,87.14800262451172 C-119.23400115966797,35.87799835205078 -119.23400115966797,-47.262001037597656 -67.96399688720703,-98.53199768066406 C-56.27399826049805,-110.22200012207031 -42.91400146484375,-119.25199890136719 -28.663999557495117,-125.60199737548828 C-32.57400131225586,-122.50199890136719 -36.354000091552734,-119.14199829101562 -39.9640007019043,-115.53199768066406 C-91.23400115966797,-64.26200103759766 -91.23400115966797,18.878000259399414 -39.9640007019043,70.14800262451172 C-0.37400001287460327,109.72799682617188 58.18600082397461,118.74800109863281 106.41600036621094,97.21800231933594z"></path></g><g opacity="1" transform="matrix(1,0,0,1,250,356.1499938964844)"><path stroke-linecap="round" stroke-linejoin="round" fill-opacity="0" stroke="rgb(18,19,49)" stroke-opacity="1" stroke-width="7" d=" M0,8.60200023651123 C0,8.60200023651123 0,-8.60200023651123 0,-8.60200023651123"></path></g><g opacity="1" transform="matrix(1,0,0,1,325.0589904785156,325.0589904785156)"><path stroke-linecap="round" stroke-linejoin="round" fill-opacity="0" stroke="rgb(18,19,49)" stroke-opacity="1" stroke-width="7" d=" M6.083000183105469,6.083000183105469 C6.083000183105469,6.083000183105469 -6.083000183105469,-6.083000183105469 -6.083000183105469,-6.083000183105469"></path></g><g opacity="1" transform="matrix(1,0,0,1,356.1499938964844,250)"><path stroke-linecap="round" stroke-linejoin="round" fill-opacity="0" stroke="rgb(18,19,49)" stroke-opacity="1" stroke-width="7" d=" M8.60200023651123,0 C8.60200023651123,0 -8.60200023651123,0 -8.60200023651123,0"></path></g><g opacity="1" transform="matrix(1,0,0,1,325.0589904785156,174.9409942626953)"><path stroke-linecap="round" stroke-linejoin="round" fill-opacity="0" stroke="rgb(18,19,49)" stroke-opacity="1" stroke-width="7" d=" M6.083000183105469,-6.083000183105469 C6.083000183105469,-6.083000183105469 -6.083000183105469,6.083000183105469 -6.083000183105469,6.083000183105469"></path></g><g opacity="1" transform="matrix(1,0,0,1,250,143.85000610351562)"><path stroke-linecap="round" stroke-linejoin="round" fill-opacity="0" stroke="rgb(18,19,49)" stroke-opacity="1" stroke-width="7" d=" M0,-8.60200023651123 C0,-8.60200023651123 0,8.60200023651123 0,8.60200023651123"></path></g><g opacity="1" transform="matrix(1,0,0,1,174.9409942626953,174.9409942626953)"><path stroke-linecap="round" stroke-linejoin="round" fill-opacity="0" stroke="rgb(18,19,49)" stroke-opacity="1" stroke-width="7" d=" M-6.083000183105469,-6.083000183105469 C-6.083000183105469,-6.083000183105469 6.083000183105469,6.083000183105469 6.083000183105469,6.083000183105469"></path></g><g opacity="1" transform="matrix(1,0,0,1,143.85000610351562,250)"><path stroke-linecap="round" stroke-linejoin="round" fill-opacity="0" stroke="rgb(18,19,49)" stroke-opacity="1" stroke-width="7" d=" M-8.60200023651123,0 C-8.60200023651123,0 8.60200023651123,0 8.60200023651123,0"></path></g><g opacity="1" transform="matrix(1,0,0,1,174.9409942626953,325.0589904785156)"><path stroke-linecap="round" stroke-linejoin="round" fill-opacity="0" stroke="rgb(18,19,49)" stroke-opacity="1" stroke-width="7" d=" M-6.083000183105469,6.083000183105469 C-6.083000183105469,6.083000183105469 6.083000183105469,-6.083000183105469 6.083000183105469,-6.083000183105469"></path></g><g opacity="0.4" transform="matrix(1,0,0,1,212.9530029296875,258.6369934082031)" style="mix-blend-mode: multiply;"><path fill="rgb(75,179,253)" fill-opacity="1" d=" M123.60800170898438,126.74299621582031 C61.428001403808594,166.58299255371094 -22.19300079345703,159.322998046875 -76.5530014038086,104.96299743652344 C-139.29299926757812,42.222999572753906 -139.29299926757812,-59.49700164794922 -76.5530014038086,-122.23699951171875 C-64.18299865722656,-134.60699462890625 -50.3129997253418,-144.52699279785156 -35.51300048828125,-152.01699829101562 C-45.10300064086914,-145.8769989013672 -54.17300033569336,-138.61700439453125 -62.553001403808594,-130.23699951171875 C-125.29299926757812,-67.49700164794922 -125.29299926757812,34.222999572753906 -62.553001403808594,96.96299743652344 C-12.182999610900879,147.33299255371094 63.327999114990234,157.26300048828125 123.60800170898438,126.74299621582031z"></path></g><g opacity="1" transform="matrix(1,0,0,1,250,250)"><path stroke-linecap="round" stroke-linejoin="round" fill-opacity="0" stroke="rgb(18,19,49)" stroke-opacity="1" stroke-width="7" d=" M113.5989990234375,113.5989990234375 C50.86000061035156,176.33799743652344 -50.86000061035156,176.33799743652344 -113.5989990234375,113.5989990234375 C-176.33799743652344,50.86000061035156 -176.33799743652344,-50.86000061035156 -113.5989990234375,-113.5989990234375 C-50.86000061035156,-176.33799743652344 50.86000061035156,-176.33799743652344 113.5989990234375,-113.5989990234375 C176.33799743652344,-50.86000061035156 176.33799743652344,50.86000061035156 113.5989990234375,113.5989990234375z"></path></g><g opacity="1" transform="matrix(1,0,0,1,250,250)"><path stroke-linecap="round" stroke-linejoin="round" fill-opacity="0" stroke="rgb(18,19,49)" stroke-opacity="1" stroke-width="7" d=" M92.83799743652344,92.83799743652344 C41.564998626708984,144.11099243164062 -41.564998626708984,144.11099243164062 -92.83799743652344,92.83799743652344 C-144.11099243164062,41.564998626708984 -144.11099243164062,-41.564998626708984 -92.83799743652344,-92.83799743652344 C-41.564998626708984,-144.11099243164062 41.564998626708984,-144.11099243164062 92.83799743652344,-92.83799743652344 C144.11099243164062,-41.564998626708984 144.11099243164062,41.564998626708984 92.83799743652344,92.83799743652344z"></path></g></g><g transform="matrix(0.33512476086616516,-0.9421737790107727,0.9421737790107727,0.33512476086616516,219.01849365234375,235.89508056640625)" opacity="1" style="display: block;"><g opacity="1" transform="matrix(1,0,0,1,0,0)"><path stroke-linecap="round" stroke-linejoin="round" fill-opacity="0" stroke="rgb(242,76,0)" stroke-opacity="1" stroke-width="7" d=" M0,32.882999420166016 C0,32.882999420166016 0,-32.882999420166016 0,-32.882999420166016"></path></g></g><g transform="matrix(0.8157864809036255,0.578353226184845,-0.578353226184845,0.8157864809036255,273.997314453125,245.91305541992188)" opacity="1" style="display: block;"><g opacity="1" transform="matrix(1,0,0,1,0,0)"><path stroke-linecap="round" stroke-linejoin="round" fill-opacity="0" stroke="rgb(18,19,49)" stroke-opacity="1" stroke-width="7" d=" M-17.21299934387207,17.21299934387207 C-17.21299934387207,17.21299934387207 17.21299934387207,-17.21299934387207 17.21299934387207,-17.21299934387207"></path></g></g><g transform="matrix(1,0,0,1,250,250)" opacity="1" style="display: block;"><path stroke-linecap="butt" stroke-linejoin="miter" fill-opacity="0" stroke-miterlimit="4" stroke="rgb(18,19,49)" stroke-opacity="1" stroke-width="0.9799999999999999" d=" M10.87,0 C10.87,6.01 6.01,10.87 0,10.87 C-6.01,10.87 -10.87,6.01 -10.87,0 C-10.87,-6.01 -6.01,-10.87 0,-10.87 C6.01,-10.87 10.87,-6.01 10.87,0z"></path><g opacity="1" transform="matrix(0.9476500153541565,0,0,0.9476500153541565,0,0)"><path fill="rgb(18,19,49)" fill-opacity="1" d=" M11.475000381469727,0 C11.475000381469727,6.3379998207092285 6.3379998207092285,11.475000381469727 0,11.475000381469727 C-6.3379998207092285,11.475000381469727 -11.475000381469727,6.3379998207092285 -11.475000381469727,0 C-11.475000381469727,-6.3379998207092285 -6.3379998207092285,-11.475000381469727 0,-11.475000381469727 C6.3379998207092285,-11.475000381469727 11.475000381469727,-6.3379998207092285 11.475000381469727,0z"></path></g></g></g><g clip-path="url(#__lottie_element_4383)" transform="matrix(1,0,0,1,0,0)" opacity="1" style="display: block;"><g transform="matrix(1,0,0,1,0,0)" opacity="1" style="display: block;"><g opacity="1" transform="matrix(1,0,0,1,250,250)"><path fill="rgb(75,179,253)" fill-opacity="1" d=" M113.5989990234375,113.5989990234375 C50.86000061035156,176.33799743652344 -50.86000061035156,176.33799743652344 -113.5989990234375,113.5989990234375 C-176.33799743652344,50.86000061035156 -176.33799743652344,-50.86000061035156 -113.5989990234375,-113.5989990234375 C-50.86000061035156,-176.33799743652344 50.86000061035156,-176.33799743652344 113.5989990234375,-113.5989990234375 C176.33799743652344,-50.86000061035156 176.33799743652344,50.86000061035156 113.5989990234375,113.5989990234375z"></path></g><g opacity="1" transform="matrix(1,0,0,1,250,250)"><path fill="rgb(235,230,239)" fill-opacity="1" d=" M92.83799743652344,92.83799743652344 C41.564998626708984,144.11099243164062 -41.564998626708984,144.11099243164062 -92.83799743652344,92.83799743652344 C-144.11099243164062,41.564998626708984 -144.11099243164062,-41.564998626708984 -92.83799743652344,-92.83799743652344 C-41.564998626708984,-144.11099243164062 41.564998626708984,-144.11099243164062 92.83799743652344,-92.83799743652344 C144.11099243164062,-41.564998626708984 144.11099243164062,41.564998626708984 92.83799743652344,92.83799743652344z"></path></g><g opacity="0.5" transform="matrix(1,0,0,1,225.12399291992188,255.69200134277344)" style="mix-blend-mode: multiply;"><path fill="rgb(235,230,239)" fill-opacity="1" d=" M106.41600036621094,97.21800231933594 C54.88600158691406,138.16799926757812 -20.304000854492188,134.80799865722656 -67.96399688720703,87.14800262451172 C-119.23400115966797,35.87799835205078 -119.23400115966797,-47.262001037597656 -67.96399688720703,-98.53199768066406 C-56.27399826049805,-110.22200012207031 -42.91400146484375,-119.25199890136719 -28.663999557495117,-125.60199737548828 C-32.57400131225586,-122.50199890136719 -36.354000091552734,-119.14199829101562 -39.9640007019043,-115.53199768066406 C-91.23400115966797,-64.26200103759766 -91.23400115966797,18.878000259399414 -39.9640007019043,70.14800262451172 C-0.37400001287460327,109.72799682617188 58.18600082397461,118.74800109863281 106.41600036621094,97.21800231933594z"></path></g><g opacity="1" transform="matrix(1,0,0,1,250,356.1499938964844)"><path stroke-linecap="round" stroke-linejoin="round" fill-opacity="0" stroke="rgb(18,19,49)" stroke-opacity="1" stroke-width="7" d=" M0,8.60200023651123 C0,8.60200023651123 0,-8.60200023651123 0,-8.60200023651123"></path></g><g opacity="1" transform="matrix(1,0,0,1,325.0589904785156,325.0589904785156)"><path stroke-linecap="round" stroke-linejoin="round" fill-opacity="0" stroke="rgb(18,19,49)" stroke-opacity="1" stroke-width="7" d=" M6.083000183105469,6.083000183105469 C6.083000183105469,6.083000183105469 -6.083000183105469,-6.083000183105469 -6.083000183105469,-6.083000183105469"></path></g><g opacity="1" transform="matrix(1,0,0,1,356.1499938964844,250)"><path stroke-linecap="round" stroke-linejoin="round" fill-opacity="0" stroke="rgb(18,19,49)" stroke-opacity="1" stroke-width="7" d=" M8.60200023651123,0 C8.60200023651123,0 -8.60200023651123,0 -8.60200023651123,0"></path></g><g opacity="1" transform="matrix(1,0,0,1,325.0589904785156,174.9409942626953)"><path stroke-linecap="round" stroke-linejoin="round" fill-opacity="0" stroke="rgb(18,19,49)" stroke-opacity="1" stroke-width="7" d=" M6.083000183105469,-6.083000183105469 C6.083000183105469,-6.083000183105469 -6.083000183105469,6.083000183105469 -6.083000183105469,6.083000183105469"></path></g><g opacity="1" transform="matrix(1,0,0,1,250,143.85000610351562)"><path stroke-linecap="round" stroke-linejoin="round" fill-opacity="0" stroke="rgb(18,19,49)" stroke-opacity="1" stroke-width="7" d=" M0,-8.60200023651123 C0,-8.60200023651123 0,8.60200023651123 0,8.60200023651123"></path></g><g opacity="1" transform="matrix(1,0,0,1,174.9409942626953,174.9409942626953)"><path stroke-linecap="round" stroke-linejoin="round" fill-opacity="0" stroke="rgb(18,19,49)" stroke-opacity="1" stroke-width="7" d=" M-6.083000183105469,-6.083000183105469 C-6.083000183105469,-6.083000183105469 6.083000183105469,6.083000183105469 6.083000183105469,6.083000183105469"></path></g><g opacity="1" transform="matrix(1,0,0,1,143.85000610351562,250)"><path stroke-linecap="round" stroke-linejoin="round" fill-opacity="0" stroke="rgb(18,19,49)" stroke-opacity="1" stroke-width="7" d=" M-8.60200023651123,0 C-8.60200023651123,0 8.60200023651123,0 8.60200023651123,0"></path></g><g opacity="1" transform="matrix(1,0,0,1,174.9409942626953,325.0589904785156)"><path stroke-linecap="round" stroke-linejoin="round" fill-opacity="0" stroke="rgb(18,19,49)" stroke-opacity="1" stroke-width="7" d=" M-6.083000183105469,6.083000183105469 C-6.083000183105469,6.083000183105469 6.083000183105469,-6.083000183105469 6.083000183105469,-6.083000183105469"></path></g><g opacity="0.4" transform="matrix(1,0,0,1,212.9530029296875,258.6369934082031)" style="mix-blend-mode: multiply;"><path fill="rgb(75,179,253)" fill-opacity="1" d=" M123.60800170898438,126.74299621582031 C61.428001403808594,166.58299255371094 -22.19300079345703,159.322998046875 -76.5530014038086,104.96299743652344 C-139.29299926757812,42.222999572753906 -139.29299926757812,-59.49700164794922 -76.5530014038086,-122.23699951171875 C-64.18299865722656,-134.60699462890625 -50.3129997253418,-144.52699279785156 -35.51300048828125,-152.01699829101562 C-45.10300064086914,-145.8769989013672 -54.17300033569336,-138.61700439453125 -62.553001403808594,-130.23699951171875 C-125.29299926757812,-67.49700164794922 -125.29299926757812,34.222999572753906 -62.553001403808594,96.96299743652344 C-12.182999610900879,147.33299255371094 63.327999114990234,157.26300048828125 123.60800170898438,126.74299621582031z"></path></g><g opacity="1" transform="matrix(1,0,0,1,250,250)"><path stroke-linecap="round" stroke-linejoin="round" fill-opacity="0" stroke="rgb(18,19,49)" stroke-opacity="1" stroke-width="7" d=" M113.5989990234375,113.5989990234375 C50.86000061035156,176.33799743652344 -50.86000061035156,176.33799743652344 -113.5989990234375,113.5989990234375 C-176.33799743652344,50.86000061035156 -176.33799743652344,-50.86000061035156 -113.5989990234375,-113.5989990234375 C-50.86000061035156,-176.33799743652344 50.86000061035156,-176.33799743652344 113.5989990234375,-113.5989990234375 C176.33799743652344,-50.86000061035156 176.33799743652344,50.86000061035156 113.5989990234375,113.5989990234375z"></path></g><g opacity="1" transform="matrix(1,0,0,1,250,250)"><path stroke-linecap="round" stroke-linejoin="round" fill-opacity="0" stroke="rgb(18,19,49)" stroke-opacity="1" stroke-width="7" d=" M92.83799743652344,92.83799743652344 C41.564998626708984,144.11099243164062 -41.564998626708984,144.11099243164062 -92.83799743652344,92.83799743652344 C-144.11099243164062,41.564998626708984 -144.11099243164062,-41.564998626708984 -92.83799743652344,-92.83799743652344 C-41.564998626708984,-144.11099243164062 41.564998626708984,-144.11099243164062 92.83799743652344,-92.83799743652344 C144.11099243164062,-41.564998626708984 144.11099243164062,41.564998626708984 92.83799743652344,92.83799743652344z"></path></g></g><g transform="matrix(-0.7753828167915344,-0.631491482257843,0.631491482257843,-0.7753828167915344,229.2346649169922,272.4118957519531)" opacity="1" style="display: block;"><g opacity="1" transform="matrix(1,0,0,1,0,0)"><path stroke-linecap="round" stroke-linejoin="round" fill-opacity="0" stroke="rgb(242,76,0)" stroke-opacity="1" stroke-width="7" d=" M0,32.882999420166016 C0,32.882999420166016 0,-32.882999420166016 0,-32.882999420166016"></path></g></g><g transform="matrix(0.33512476086616516,-0.9421737790107727,0.9421737790107727,0.33512476086616516,239.55087280273438,228.01385498046875)" opacity="1" style="display: block;"><path stroke-linecap="butt" stroke-linejoin="miter" fill-opacity="0" stroke-miterlimit="4" stroke="rgb(18,19,49)" stroke-opacity="1" stroke-width="2" d=" M-17.21299934387207,17.21299934387207 C-17.21299934387207,17.21299934387207 17.21299934387207,-17.21299934387207 17.21299934387207,-17.21299934387207"></path><path stroke-linecap="butt" stroke-linejoin="miter" fill-opacity="0" stroke-miterlimit="4" stroke="rgb(255,255,255)" stroke-opacity="1" stroke-width="0.9799999999999999" d=" M-17.21299934387207,17.21299934387207 C-17.21299934387207,17.21299934387207 17.21299934387207,-17.21299934387207 17.21299934387207,-17.21299934387207"></path><g opacity="1" transform="matrix(1,0,0,1,0,0)"><path stroke-linecap="round" stroke-linejoin="round" fill-opacity="0" stroke="rgb(18,19,49)" stroke-opacity="1" stroke-width="7" d=" M-17.21299934387207,17.21299934387207 C-17.21299934387207,17.21299934387207 17.21299934387207,-17.21299934387207 17.21299934387207,-17.21299934387207"></path></g></g><g transform="matrix(1,0,0,1,250,250)" opacity="1" style="display: block;"><path stroke-linecap="butt" stroke-linejoin="miter" fill-opacity="0" stroke-miterlimit="4" stroke="rgb(18,19,49)" stroke-opacity="1" stroke-width="0.9799999999999999" d=" M10.87,0 C10.87,6.01 6.01,10.87 0,10.87 C-6.01,10.87 -10.87,6.01 -10.87,0 C-10.87,-6.01 -6.01,-10.87 0,-10.87 C6.01,-10.87 10.87,-6.01 10.87,0z"></path><g opacity="1" transform="matrix(0.9476500153541565,0,0,0.9476500153541565,0,0)"><path fill="rgb(18,19,49)" fill-opacity="1" d=" M11.475000381469727,0 C11.475000381469727,6.3379998207092285 6.3379998207092285,11.475000381469727 0,11.475000381469727 C-6.3379998207092285,11.475000381469727 -11.475000381469727,6.3379998207092285 -11.475000381469727,0 C-11.475000381469727,-6.3379998207092285 -6.3379998207092285,-11.475000381469727 0,-11.475000381469727 C6.3379998207092285,-11.475000381469727 11.475000381469727,-6.3379998207092285 11.475000381469727,0z"></path></g></g></g><g class="com" style="display: none;"><g><path></path></g><g><path></path></g><g><path></path></g><g><path></path></g><g><path></path></g><g><path></path></g><g><path></path></g><g><path></path></g><g><path></path></g><g><path></path></g><g><path></path></g><g><path></path></g></g></g></svg>